<svg width="140" height="14" viewBox="0 0 140 14" fill="none" xmlns="http://www.w3.org/2000/svg">
<path d="M6.88806 13.0548C6.24406 13.0548 5.65606 12.9708 5.12406 12.8028C4.60139 12.6348 4.18139 12.3968 3.86406 12.0888C3.54673 11.7901 3.38806 11.4308 3.38806 11.0108C3.38806 10.6468 3.55139 10.2734 3.87806 9.89076C3.78473 9.72276 3.71006 9.58276 3.65406 9.47076C3.59806 9.34943 3.57006 9.21409 3.57006 9.06476C3.57006 8.84076 3.62606 8.52343 3.73806 8.11276C3.85939 7.69276 4.01339 7.23543 4.20006 6.74076C4.39606 6.23676 4.61073 5.74209 4.84406 5.25676C5.08673 4.77143 5.32939 4.35143 5.57206 3.99676C5.89873 3.52076 6.16473 3.16609 6.37006 2.93276C6.58473 2.69009 6.79006 2.53143 6.98606 2.45676C7.19139 2.37276 7.44339 2.33076 7.74206 2.33076C8.09673 2.33076 8.34873 2.34943 8.49806 2.38676V2.65276C8.49806 3.49276 8.27873 4.16943 7.84006 4.68276H7.74206C7.35006 4.68276 7.06073 4.79009 6.87406 5.00476C6.78073 5.11676 6.65939 5.31276 6.51006 5.59276C6.36073 5.87276 6.21139 6.17609 6.06206 6.50276C5.91273 6.82943 5.78673 7.12809 5.68406 7.39876C5.59073 7.66943 5.54406 7.85143 5.54406 7.94476C5.54406 8.21543 5.66073 8.45343 5.89406 8.65876C5.76339 9.40543 5.30139 10.0448 4.50806 10.5768L4.17206 10.2968C4.00406 10.4741 3.92006 10.6841 3.92006 10.9268C3.92006 11.3934 4.18606 11.7714 4.71806 12.0608C5.25006 12.3501 5.97339 12.4948 6.88806 12.4948C7.86806 12.4948 8.78273 12.2474 9.63206 11.7528C10.4907 11.2488 11.1861 10.5628 11.7181 9.69476C11.9887 9.25609 12.1847 8.80343 12.3061 8.33676C12.4367 7.86076 12.5021 7.37543 12.5021 6.88076C12.5021 6.20876 12.3901 5.56476 12.1661 4.94876C11.9421 4.33276 11.6201 3.77276 11.2001 3.26876C10.7801 2.75543 10.2761 2.33543 9.68806 2.00876C8.81073 1.51409 7.87739 1.26676 6.88806 1.26676C6.21606 1.26676 5.56739 1.38809 4.94206 1.63076C4.31673 1.86409 3.75206 2.19543 3.24806 2.62476C2.74406 3.05409 2.32406 3.55809 1.98806 4.13676C1.49339 4.99543 1.24606 5.91009 1.24606 6.88076C1.24606 7.59943 1.36739 8.26209 1.61006 8.86876C1.86206 9.46609 2.25406 10.0868 2.78606 10.7308C2.74873 10.7401 2.70673 10.7541 2.66006 10.7728C2.61339 10.7914 2.55739 10.8008 2.49206 10.8008C2.30539 10.8008 2.10939 10.6841 1.90406 10.4508C1.69873 10.2081 1.50273 9.89076 1.31606 9.49876C1.13873 9.10676 0.994061 8.68209 0.882061 8.22476C0.770061 7.76743 0.714061 7.31943 0.714061 6.88076C0.714061 6.15276 0.840061 5.45743 1.09206 4.79476C1.34406 4.12276 1.70339 3.51143 2.17006 2.96076C2.63673 2.41009 3.18739 1.94809 3.82206 1.57476C4.77406 1.01476 5.79606 0.734761 6.88806 0.734761C7.61606 0.734761 8.31606 0.860761 8.98806 1.11276C9.66939 1.35543 10.2854 1.71009 10.8361 2.17676C11.3961 2.63409 11.8534 3.18009 12.2081 3.81476C12.7587 4.78543 13.0341 5.80743 13.0341 6.88076C13.0341 7.59943 12.9081 8.29943 12.6561 8.98076C12.4041 9.66209 12.0447 10.2828 11.5781 10.8428C11.1114 11.4028 10.5607 11.8648 9.92606 12.2288C8.96473 12.7794 7.95206 13.0548 6.88806 13.0548ZM5.58606 11.1088C5.57673 11.1088 5.56739 11.1088 5.55806 11.1088C5.54873 11.0994 5.53939 11.0948 5.53006 11.0948C5.53006 11.0948 5.26406 10.9734 4.73206 10.7308C5.57206 10.1801 6.04339 9.52209 6.14606 8.75676L6.60806 9.10676C6.76673 9.21876 6.84606 9.34476 6.84606 9.48476C6.84606 9.57809 6.79939 9.71809 6.70606 9.90476C6.61273 10.0821 6.49606 10.2641 6.35606 10.4508C6.21606 10.6281 6.07606 10.7821 5.93606 10.9128C5.79606 11.0434 5.67939 11.1088 5.58606 11.1088ZM8.82006 5.01876C8.77339 5.01876 8.51673 4.94876 8.05006 4.80876C8.32073 4.47276 8.50273 4.15076 8.59606 3.84276C8.69873 3.52543 8.75006 3.15676 8.75006 2.73676V2.48476L9.31006 2.76476C9.42206 2.82076 9.50139 2.87209 9.54806 2.91876C9.59473 2.96543 9.61806 3.06343 9.61806 3.21276C9.61806 3.47409 9.59939 3.71676 9.56206 3.94076C9.52473 4.15543 9.45939 4.35143 9.36606 4.52876C9.19806 4.85543 9.01606 5.01876 8.82006 5.01876ZM21.7483 10.103V3.54049H22.8619V10.103H21.7483ZM19.0239 7.37856V6.26492H25.5864V7.37856H19.0239ZM31.5535 1.71094V11.8928H30.3206V3.00356H30.2609L27.7751 4.65412V3.40128L30.3206 1.71094H31.5535ZM38.8568 6.80185C38.8568 5.54901 39.0192 4.39726 39.344 3.3466C39.6721 2.29262 40.1394 1.32316 40.746 0.438215H41.7801C41.5414 0.766341 41.3177 1.1707 41.1089 1.65128C40.9034 2.12856 40.7228 2.65389 40.567 3.22728C40.4112 3.79735 40.2886 4.38732 40.1991 4.99716C40.1129 5.60701 40.0698 6.20858 40.0698 6.80185C40.0698 7.59068 40.1461 8.3911 40.2985 9.20313C40.451 10.0152 40.6565 10.7692 40.915 11.4652C41.1735 12.1612 41.4619 12.728 41.7801 13.1655H40.746C40.1394 12.2805 39.6721 11.3127 39.344 10.2621C39.0192 9.2081 38.8568 8.05469 38.8568 6.80185ZM46.7529 12.032C46.0701 12.032 45.4669 11.911 44.9432 11.669C44.4229 11.4238 44.0169 11.0874 43.7252 10.6598C43.4335 10.2289 43.2894 9.73841 43.2927 9.18822C43.2894 8.75734 43.3739 8.35962 43.5462 7.99503C43.7186 7.62714 43.9539 7.32055 44.2522 7.07529C44.5538 6.82671 44.8902 6.66928 45.2614 6.60299V6.54333C44.7742 6.41738 44.3864 6.14394 44.0981 5.72302C43.8097 5.29877 43.6672 4.81653 43.6705 4.27628C43.6672 3.75924 43.7981 3.29688 44.0633 2.88921C44.3284 2.48154 44.693 2.16004 45.157 1.92472C45.6244 1.6894 46.1563 1.57174 46.7529 1.57174C47.3429 1.57174 47.8699 1.6894 48.3339 1.92472C48.7979 2.16004 49.1625 2.48154 49.4276 2.88921C49.6961 3.29688 49.832 3.75924 49.8353 4.27628C49.832 4.81653 49.6845 5.29877 49.3928 5.72302C49.1045 6.14394 48.7217 6.41738 48.2444 6.54333V6.60299C48.6123 6.66928 48.9437 6.82671 49.2387 7.07529C49.5337 7.32055 49.769 7.62714 49.9447 7.99503C50.1203 8.35962 50.2098 8.75734 50.2131 9.18822C50.2098 9.73841 50.0607 10.2289 49.7657 10.6598C49.474 11.0874 49.068 11.4238 48.5476 11.669C48.0306 11.911 47.4324 12.032 46.7529 12.032ZM46.7529 10.9382C47.2136 10.9382 47.6113 10.8636 47.9461 10.7145C48.2808 10.5653 48.5394 10.3549 48.7217 10.0831C48.9039 9.81132 48.9967 9.49314 49.0001 9.12856C48.9967 8.74409 48.8973 8.40436 48.7018 8.10938C48.5062 7.8144 48.2394 7.58239 47.9013 7.41336C47.5666 7.24432 47.1838 7.15981 46.7529 7.15981C46.3187 7.15981 45.9309 7.24432 45.5895 7.41336C45.2515 7.58239 44.9847 7.8144 44.7891 8.10938C44.5969 8.40436 44.5024 8.74409 44.5057 9.12856C44.5024 9.49314 44.5903 9.81132 44.7692 10.0831C44.9515 10.3549 45.2117 10.5653 45.5498 10.7145C45.8878 10.8636 46.2889 10.9382 46.7529 10.9382ZM46.7529 6.10583C47.1175 6.10583 47.4406 6.03291 47.7224 5.88708C48.0074 5.74125 48.2311 5.53741 48.3935 5.27557C48.5559 5.01374 48.6388 4.70715 48.6421 4.35583C48.6388 4.01113 48.5576 3.71118 48.3985 3.45597C48.2394 3.19745 48.019 2.99858 47.7373 2.85938C47.4556 2.71686 47.1274 2.6456 46.7529 2.6456C46.3717 2.6456 46.0387 2.71686 45.7536 2.85938C45.4686 2.99858 45.2482 3.19745 45.0924 3.45597C44.9366 3.71118 44.8604 4.01113 44.8637 4.35583C44.8604 4.70715 44.9383 5.01374 45.0974 5.27557C45.2598 5.53741 45.4835 5.74125 45.7685 5.88708C46.0536 6.03291 46.3817 6.10583 46.7529 6.10583ZM52.4367 11.8928L56.9907 2.88424V2.80469H51.7407V1.71094H58.2634V2.86435L53.7293 11.8928H52.4367ZM60.7082 11.8928L65.2621 2.88424V2.80469H60.0121V1.71094H66.5349V2.86435L62.0008 11.8928H60.7082ZM70.9136 6.80185C70.9136 8.05469 70.7495 9.2081 70.4214 10.2621C70.0966 11.3127 69.6309 12.2805 69.0244 13.1655H67.9903C68.2289 12.8374 68.451 12.433 68.6565 11.9524C68.8653 11.4751 69.0476 10.9515 69.2034 10.3814C69.3591 9.80801 69.4801 9.21639 69.5663 8.60654C69.6558 7.99338 69.7005 7.39181 69.7005 6.80185C69.7005 6.01303 69.6243 5.2126 69.4718 4.40057C69.3194 3.58855 69.1139 2.83452 68.8554 2.1385C68.5968 1.44248 68.3085 0.875716 67.9903 0.438215H69.0244C69.6309 1.32316 70.0966 2.29262 70.4214 3.3466C70.7495 4.39726 70.9136 5.54901 70.9136 6.80185ZM77.716 11.8928L82.2699 2.88424V2.80469H77.0199V1.71094H83.5427V2.86435L79.0086 11.8928H77.716ZM85.9875 11.8928L90.5414 2.88424V2.80469H85.2914V1.71094H91.8142V2.86435L87.2801 11.8928H85.9875ZM94.2589 11.8928L98.8129 2.88424V2.80469H93.5629V1.71094H100.086V2.86435L95.5516 11.8928H94.2589ZM106.334 6.25498V7.34873H101.879V6.25498H106.334ZM108.382 11.8928L112.936 2.88424V2.80469H107.686V1.71094H114.209V2.86435L109.675 11.8928H108.382ZM116.653 11.8928L121.207 2.88424V2.80469H115.957V1.71094H122.48V2.86435L117.946 11.8928H116.653ZM124.925 11.8928L129.479 2.88424V2.80469H124.229V1.71094H130.752V2.86435L126.218 11.8928H124.925ZM133.196 11.8928L137.75 2.88424V2.80469H132.5V1.71094H139.023V2.86435L134.489 11.8928H133.196Z" fill="white"/>
</svg>
