<?xml version="1.0" encoding="utf-8"?>
<!-- Generator: Adobe Illustrator 27.2.0, SVG Export Plug-In . SVG Version: 6.00 Build 0)  -->
<svg version="1.1" id="Layer_1" xmlns="http://www.w3.org/2000/svg" xmlns:xlink="http://www.w3.org/1999/xlink" x="0px" y="0px"
	 width="14px" height="14px" viewBox="0 0 14 14" style="enable-background:new 0 0 14 14;" xml:space="preserve">
<style type="text/css">
	.st0{fill:#FFFFFF;}
</style>
<path class="st0" d="M6.9,13.1c-0.6,0-1.2-0.1-1.8-0.3c-0.5-0.2-0.9-0.4-1.3-0.7c-0.3-0.3-0.5-0.7-0.5-1.1c0-0.4,0.2-0.7,0.5-1.1
	C3.8,9.7,3.7,9.6,3.7,9.5C3.6,9.3,3.6,9.2,3.6,9.1c0-0.2,0.1-0.5,0.2-1C3.9,7.7,4,7.2,4.2,6.7c0.2-0.5,0.4-1,0.6-1.5
	C5.1,4.8,5.3,4.4,5.6,4c0.3-0.5,0.6-0.8,0.8-1.1C6.6,2.7,6.8,2.5,7,2.5c0.2-0.1,0.5-0.1,0.8-0.1c0.4,0,0.6,0,0.8,0.1v0.3
	c0,0.8-0.2,1.5-0.7,2H7.7C7.4,4.7,7.1,4.8,6.9,5C6.8,5.1,6.7,5.3,6.5,5.6C6.4,5.9,6.2,6.2,6.1,6.5C5.9,6.8,5.8,7.1,5.7,7.4
	C5.6,7.7,5.5,7.9,5.5,7.9c0,0.3,0.1,0.5,0.3,0.7C5.8,9.4,5.3,10,4.5,10.6l-0.3-0.3c-0.2,0.2-0.3,0.4-0.3,0.6c0,0.5,0.3,0.8,0.8,1.1
	c0.5,0.3,1.3,0.4,2.2,0.4c1,0,1.9-0.2,2.7-0.7c0.9-0.5,1.6-1.2,2.1-2.1c0.3-0.4,0.5-0.9,0.6-1.4c0.1-0.5,0.2-1,0.2-1.5
	c0-0.7-0.1-1.3-0.3-1.9s-0.5-1.2-1-1.7C10.8,2.8,10.3,2.3,9.7,2C8.8,1.5,7.9,1.3,6.9,1.3c-0.7,0-1.3,0.1-1.9,0.4
	c-0.6,0.2-1.2,0.6-1.7,1S2.3,3.6,2,4.1C1.5,5,1.2,5.9,1.2,6.9c0,0.7,0.1,1.4,0.4,2c0.3,0.6,0.6,1.2,1.2,1.9c0,0-0.1,0-0.1,0
	c0,0-0.1,0-0.2,0c-0.2,0-0.4-0.1-0.6-0.4c-0.2-0.2-0.4-0.6-0.6-1C1.1,9.1,1,8.7,0.9,8.2C0.8,7.8,0.7,7.3,0.7,6.9
	c0-0.7,0.1-1.4,0.4-2.1C1.3,4.1,1.7,3.5,2.2,3s1-1,1.7-1.4c1-0.6,2-0.8,3.1-0.8c0.7,0,1.4,0.1,2.1,0.4c0.7,0.2,1.3,0.6,1.8,1.1
	c0.6,0.5,1,1,1.4,1.6c0.6,1,0.8,2,0.8,3.1c0,0.7-0.1,1.4-0.4,2.1c-0.3,0.7-0.6,1.3-1.1,1.9c-0.5,0.6-1,1-1.7,1.4
	C9,12.8,8,13.1,6.9,13.1z"/>
<path class="st0" d="M5.6,11.1C5.6,11.1,5.6,11.1,5.6,11.1C5.5,11.1,5.5,11.1,5.6,11.1c-0.1,0-0.3-0.1-0.9-0.4
	c0.8-0.6,1.3-1.2,1.4-2l0.5,0.4c0.2,0.1,0.2,0.2,0.2,0.4c0,0.1,0,0.2-0.1,0.4c-0.1,0.2-0.2,0.4-0.3,0.5c-0.1,0.2-0.3,0.3-0.4,0.5
	C5.8,11,5.7,11.1,5.6,11.1z"/>
<path class="st0" d="M8.8,5c0,0-0.3-0.1-0.8-0.2c0.3-0.3,0.5-0.7,0.5-1c0.1-0.3,0.2-0.7,0.2-1.1V2.5l0.6,0.3
	c0.1,0.1,0.2,0.1,0.2,0.2s0.1,0.1,0.1,0.3c0,0.3,0,0.5-0.1,0.7c0,0.2-0.1,0.4-0.2,0.6C9.2,4.9,9,5,8.8,5z"/>
</svg>
